<svg xmlns="http://www.w3.org/2000/svg" width="32" height="32" viewBox="0 0 32 32"><g><g><path fill="#709dca" d="M27.006 23.906H17.003v1.41l5.68 4.973a1 1 0 0 1-1.41 1.421l-4.27-3.74v1.011a1 1 0 1 1-2 0v-1.053l-4.295 3.782a.995.995 0 0 1-.704.29 1 1 0 0 1-.704-1.71l5.703-5.023v-1.361H4.994C2.24 23.906 0 21.715 0 19.022V6.875C0 4.182 2.24 1.99 4.994 1.99H15V1a1 1 0 1 1 2 0v.99h10.006C29.76 1.99 32 4.183 32 6.876v12.147c0 2.693-2.24 4.884-4.994 4.884zM4.994 3.99C3.344 3.99 2 5.284 2 6.875v12.147c0 1.59 1.343 2.884 2.994 2.884h22.012c1.651 0 2.994-1.294 2.994-2.884V6.875c0-1.563-1.371-2.884-2.994-2.884zM7 19.055a1 1 0 0 1-.755-1.655l6.159-7.098a1 1 0 0 1 1.406-.104l5.095 4.369 5.335-6.25a1 1 0 0 1 1.522 1.298l-5.987 7.013a1 1 0 0 1-1.412.11l-5.1-4.375-5.507 6.348a.998.998 0 0 1-.756.344z"/></g></g></svg>