<svg xmlns="http://www.w3.org/2000/svg" width="32" height="32" viewBox="0 0 32 32"><g><g><path fill="#709dca" d="M26.161 24.48H12.662a.992.992 0 0 1-.956-.725L6.18 3.445c-.283-.975-.696-.975-.831-.975H1.065a.993.993 0 1 1 0-1.986H5.35c.614 0 2.11.236 2.74 2.417l1.607 5.54h2.566l6.301-5.463a2.001 2.001 0 0 1 2.829 0l6.41 5.463h3.117a.993.993 0 0 1 .934 1.33l-4.757 14.052a.992.992 0 0 1-.935.657zm-12.746-1.986h12.047l4.045-12.066H10.254zm10.077 3.998a2.5 2.5 0 1 1 0 5 2.5 2.5 0 0 1 0-5zm-9 0a2.5 2.5 0 1 1 0 5 2.5 2.5 0 0 1 0-5zm5.485-22.1l-4.751 4.05h9.502z"/></g></g></svg>