<svg xmlns="http://www.w3.org/2000/svg" width="26" height="32" viewBox="0 0 26 32"><g><g><path fill="#709dca" d="M10.975 28.053c-1.952 0-3.847-.366-5.635-1.089a1 1 0 1 1 .75-1.853c1.548.625 3.191.942 4.885.942 7.574 0 13.072-5.497 13.072-13.071 0-4.558-2.411-8.698-6.45-11.075A1 1 0 0 1 18.61.183c4.656 2.74 7.437 7.524 7.437 12.799 0 8.05-5.386 14.065-13.069 14.956v2.084h3.012c.577 0 1.045.446 1.045.997 0 .552-.468.999-1.045.999H8.09c-.577 0-1.045-.447-1.045-.999 0-.55.468-.997 1.045-.997h2.904v-1.97h-.018zm-.007-24.025c-4.971 0-9.015 4.074-9.015 9.044 0 4.97 4.044 8.982 9.015 8.982 4.97 0 9.012-4.013 9.012-8.982 0-4.97-4.043-9.044-9.012-9.044 0 0 4.97 0 0 0zm0-2c6.083 0 11.012 4.96 11.012 11.044 0 6.083-4.93 10.982-11.012 10.982-6.084 0-11.015-4.9-11.015-10.982 0-6.083 4.93-11.044 11.015-11.044z"/></g></g></svg>