<svg xmlns="http://www.w3.org/2000/svg" width="33" height="32" viewBox="0 0 33 32"><g><g><path fill="#709dca" d="M16.195 17.615c-.165 0-.329-.041-.478-.122L.87 9.408A1.001 1.001 0 0 1 .9 7.637L15.9.097c.285-.143.62-.142.903.001l14.847 7.54a1.001 1.001 0 0 1 .022 1.772L16.67 17.495a.999.999 0 0 1-.475.12zm-12.69-9.05l12.693 6.912 12.843-6.92L16.349 2.11zm28.521 7.301a.998.998 0 0 1-.525.892l-15.003 8.085a.999.999 0 0 1-.953-.002L.698 16.756a1.001 1.001 0 0 1 .03-1.772l3.134-1.575L6 14.573l-2.666 1.34 12.693 6.912 12.843-6.921-2.5-1.27 2.143-1.155 2.968 1.507c.33.169.541.507.546.88zm0 7a.998.998 0 0 1-.525.892l-15.003 8.084a.997.997 0 0 1-.953-.001L.698 23.755a1 1 0 0 1 .03-1.77l2.947-1.357 2.136 1.164-2.478 1.12 12.693 6.913 12.843-6.92-2.344-1.145 2.143-1.156 2.812 1.382c.33.169.541.507.546.88z"/></g></g></svg>