<svg xmlns="http://www.w3.org/2000/svg" width="32" height="32" viewBox="0 0 32 32"><g><g><path fill="#709dca" d="M16 28c-1.654 0-3-1.346-3-3a3.004 3.004 0 0 1 2.662-2.981l2.78-12.043a1.001 1.001 0 0 1 1.95.45L17.61 22.47A3 3 0 0 1 16 28zm0-4a1 1 0 0 0 0 2 1.001 1.001 0 0 0 0-2zm0 8C7.178 32 0 24.822 0 16 0 7.177 7.178 0 16 0s16 7.177 16 16c0 8.822-7.178 16-16 16zm0-30C8.28 2 2 8.28 2 16s6.28 14 14 14 14-6.28 14-14S23.72 2 16 2zm11 15a1 1 0 0 1-1-1c0-5.515-4.486-10-10-10S6 10.485 6 16a1 1 0 1 1-2 0C4 9.383 9.383 4 16 4s12 5.383 12 12a1 1 0 0 1-1 1z"/></g></g></svg>