<svg xmlns="http://www.w3.org/2000/svg" width="32" height="32" viewBox="0 0 32 32"><g><g><path fill="#ffc155" d="M4.52 7.52a2.98 2.98 0 0 1-2.122-.88L.293 4.535a1 1 0 0 1 0-1.414L3.12.293a1 1 0 0 1 1.414 0l2.106 2.105c.922.922 1.117 2.3.586 3.414l5.712 5.713 1.182-1.082A8.843 8.843 0 0 1 14 9c0-4.963 4.037-9 9-9 .823 0 1.654.118 2.472.35a1 1 0 0 1 .432 1.67l-1.726 1.726a2.888 2.888 0 0 0 0 4.076c1.09 1.091 2.987 1.091 4.075 0l1.727-1.727a1 1 0 0 1 1.67.434c.232.816.35 1.648.35 2.471 0 4.75-3.697 8.651-8.365 8.978l7.193 7.194A3.973 3.973 0 0 1 32 28a3.966 3.966 0 0 1-1.173 2.827A3.967 3.967 0 0 1 28 32a3.973 3.973 0 0 1-2.828-1.172l-8.075-8.075-6.825 7.457C9.11 31.375 7.602 32 6 32a5.96 5.96 0 0 1-4.242-1.758A5.954 5.954 0 0 1 0 26c0-1.602.624-3.11 1.758-4.243l9.704-8.88-5.648-5.65a2.988 2.988 0 0 1-1.295.292zM2.413 3.827l1.398 1.399a1.024 1.024 0 0 0 1.415 0c.39-.39.39-1.025 0-1.415L3.828 2.414zm19.012 11.987A6.947 6.947 0 0 0 23 16c3.86 0 7-3.14 7-7l-.001-.094-.331.33a4.847 4.847 0 0 1-3.452 1.432 4.849 4.849 0 0 1-3.453-1.432 4.89 4.89 0 0 1 0-6.904L23.095 2C19.212 1.981 16 5.11 16 9a7.064 7.064 0 0 0 .197 1.635.993.993 0 0 1-.332.922L3.14 23.202A3.956 3.956 0 0 0 2 26a3.97 3.97 0 0 0 1.172 2.827c1.513 1.513 4.145 1.512 5.656 0l11.634-12.713a1 1 0 0 1 .964-.299zm-2.608 5.83l7.768 7.769c.756.756 2.072.756 2.828 0 .378-.378.586-.88.586-1.413 0-.535-.208-1.037-.586-1.415l-7.768-7.768zM8 26a1.999 1.999 0 1 1-4 0 2 2 0 0 1 4 0z"/></g></g></svg>