<svg xmlns="http://www.w3.org/2000/svg" width="39" height="38" viewBox="0 0 39 38"><defs><clipPath id="1znxa"><path fill="#fff" d="M19.454.329c10.392 0 18.817 8.424 18.817 18.817 0 10.392-8.425 18.816-18.817 18.816C9.06 37.962.636 29.538.636 19.145.636 8.753 9.061.328 19.454.328z"/></clipPath></defs><g><g><path fill="#fff" d="M19.454.329c10.392 0 18.817 8.424 18.817 18.817 0 10.392-8.425 18.816-18.817 18.816C9.06 37.962.636 29.538.636 19.145.636 8.753 9.061.328 19.454.328z"/><path fill="none" stroke="#fff" stroke-linecap="round" stroke-linejoin="round" stroke-miterlimit="50" stroke-width="2" d="M19.454.329c10.392 0 18.817 8.424 18.817 18.817 0 10.392-8.425 18.816-18.817 18.816C9.06 37.962.636 29.538.636 19.145.636 8.753 9.061.328 19.454.328z" clip-path="url(&quot;#1znxa&quot;)"/></g><g><path fill="#fff" d="M29.442 18.601c.36.374.558.871.558 1.398 0 .528-.198 1.025-.559 1.4-1.655 1.718-5.212 4.6-10.441 4.6-5.229 0-8.786-2.882-10.442-4.6a2.006 2.006 0 0 1-.558-1.4c0-.527.198-1.024.558-1.398C10.213 16.883 13.77 14 19 14s8.787 2.883 10.441 4.601zM29.28 20c0-.327-.123-.635-.347-.868-1.576-1.636-4.962-4.382-9.933-4.382-4.97 0-8.357 2.746-9.933 4.382-.224.233-.348.54-.348.868 0 .327.124.635.348.868C10.643 22.504 14.03 25.25 19 25.25s8.357-2.746 9.933-4.382c.224-.233.347-.541.347-.868zm-7.4 0c0 1.654-1.292 3-2.88 3-1.588 0-2.88-1.346-2.88-3 0-1.655 1.292-3 2.88-3 1.588 0 2.88 1.345 2.88 3zm-.72 0c0-1.241-.97-2.25-2.16-2.25-1.19 0-2.16 1.009-2.16 2.25 0 1.24.97 2.25 2.16 2.25 1.19 0 2.16-1.01 2.16-2.25z"/></g></g></svg>